<svg xmlns="http://www.w3.org/2000/svg" viewBox="0 0 500 500"><g id="freepik--Cake--inject-2"><g><g><g><path d="M89.92,386.36c-.27,.51-22.79-65.62-33.67-97.64-1.26-3.7,3.96-6.84,6.66-4.01,23.52,24.55,72.2,75.49,71.78,76.26-.54,1.01-44.78,25.4-44.78,25.4Z" style="fill:#b97964;"></path><rect x="106.82" y="332.14" width="1" height="54.82" transform="translate(-257.27 448.26) rotate(-87.06)" style="fill:#a24e3f;"></rect><rect x="96.95" y="363.81" width="1" height="22.89" transform="translate(-282.31 453.3) rotate(-87.06)" style="fill:#a24e3f;"></rect><rect x="96.15" y="320.27" width="1" height="44.94" transform="translate(-251.48 417.71) rotate(-86.41)" style="fill:#a24e3f;"></rect><rect x="85.2" y="308.71" width="1" height="34.53" transform="translate(-245.01 391.08) rotate(-86.41)" style="fill:#a24e3f;"></rect><rect x="75.94" y="298.62" width="1" height="25.55" transform="translate(-239.14 368.16) rotate(-86.4)" style="fill:#a24e3f;"></rect><rect x="68.33" y="290.71" width="1" height="17.9" transform="translate(-234.56 349.57) rotate(-86.41)" style="fill:#a24e3f;"></rect><rect x="62.37" y="284.34" width="1" height="11.89" transform="translate(-232.03 325.71) rotate(-84.63)" style="fill:#a24e3f;"></rect><rect x="80.01" y="360.8" width="49.16" height="1" transform="translate(-268.38 312.58) rotate(-66.41)" style="fill:#a24e3f;"></rect><rect x="110.55" y="360.77" width="22.09" height="1" transform="translate(-258.15 328.14) rotate(-66.41)" style="fill:#a24e3f;"></rect><rect x="69.33" y="346.88" width="47.08" height="1" transform="translate(-263.28 297.87) rotate(-67.12)" style="fill:#a24e3f;"></rect><rect x="64.73" y="329.34" width="36.05" height="1" transform="translate(-253.31 277.83) rotate(-67.12)" style="fill:#a24e3f;"></rect><rect x="61" y="313.85" width="26.29" height="1" transform="translate(-244.65 262.51) rotate(-67.49)" style="fill:#a24e3f;"></rect><rect x="57.84" y="301.07" width="18.69" height="1" transform="translate(-236.78 246.2) rotate(-67.12)" style="fill:#a24e3f;"></rect><rect x="55.54" y="290.89" width="12.17" height="1" transform="translate(-230.8 234.86) rotate(-67.12)" style="fill:#a24e3f;"></rect></g><path d="M67.66,311.55c7.35,17.87,14.11,36.1,20.19,54.45-7.35-17.88-14.11-36.11-20.19-54.45h0Z" style="fill:#fff;"></path></g><g><rect x="110.22" y="298.57" width="272.39" height="133" style="fill:#407BFF;"></rect><rect x="110.22" y="384.91" width="272.39" height="24.58" style="opacity:.2;"></rect><g style="opacity:.2;"><path d="M110.22,366.92c4.46,.4,8.95-3.32,11.96-7.06,3.52-4.38,7.41-9.62,13.03-9.75,6.59-.16,11.39,6.95,17.94,7.64,8.65,.92,13.92-8.94,20.9-14.12,7.1-5.27,16.56-5.72,25.39-5.96,9.72-.27,21.61,.7,25.83,9.46,1.91,3.97,1.64,8.59,2.1,12.97,.46,4.38,2.14,9.21,6.18,10.99,5.32,2.34,11.38-2.12,13.94-7.34,2.56-5.22,3.08-11.26,5.74-16.43,2.66-5.17,8.97-9.41,14.14-6.76,4.85,2.48,5.64,9.24,9.68,12.88,5.38,4.84,14.08,2.32,19.93-1.92,5.86-4.24,10.95-10.07,17.95-11.89,8.9-2.3,17.88,2.55,26.18,6.52,8.3,3.97,18.67,7.04,26.22,1.78,2.94-2.05,5.09-5.18,8.31-6.76,2.18-1.07,5.18-.84,6.98,.51v-43.12H110.22v68.34Z"></path></g><path d="M390.03,296.79c.06,12.77-.05,32.12-1.09,40.32-.27,2.15-2.12,3.16-3.98,2.05-1.72-1.03-.71-3.21-.82-4.99-.23-3.57-5.28-4.81-8.49-3.23s-5.37,4.71-8.31,6.76c-7.55,5.26-17.92,2.19-26.22-1.78-8.3-3.97-17.27-8.82-26.18-6.52-7,1.81-12.09,7.64-17.95,11.89-5.86,4.24-14.56,6.76-19.93,1.92-4.05-3.64-4.84-10.4-9.68-12.88-5.17-2.65-11.48,1.6-14.14,6.76-2.66,5.17-3.18,11.21-5.74,16.43s-8.62,9.68-13.94,7.34c-4.03-1.78-5.71-6.6-6.18-10.99-.46-4.38-.19-9-2.1-12.97-4.22-8.76-16.1-9.73-25.83-9.46-8.84,.24-18.3,.69-25.39,5.96-6.98,5.18-12.26,15.03-20.9,14.12-6.55-.69-11.35-7.8-17.94-7.64-5.62,.13-9.51,5.37-13.03,9.75s-9.08,8.73-14.22,6.48c-5.1-2.23-5.72-9.1-5.56-14.66,.37-13.18,.75-26.37,1.12-39.55,.03-1.2,.07-3.01,.1-4.99,.11-6.04,5.02-10.89,11.06-10.92l263.14-1.29c6.71-.03,12.17,5.38,12.2,12.09Z" style="fill:#407BFF;"></path><g style="opacity:.8;"><path d="M390.03,296.79c.06,12.77-.05,32.12-1.09,40.32-.27,2.15-2.12,3.16-3.98,2.05-1.72-1.03-.71-3.21-.82-4.99-.23-3.57-5.28-4.81-8.49-3.23s-5.37,4.71-8.31,6.76c-7.55,5.26-17.92,2.19-26.22-1.78-8.3-3.97-17.27-8.82-26.18-6.52-7,1.81-12.09,7.64-17.95,11.89-5.86,4.24-14.56,6.76-19.93,1.92-4.05-3.64-4.84-10.4-9.68-12.88-5.17-2.65-11.48,1.6-14.14,6.76-2.66,5.17-3.18,11.21-5.74,16.43s-8.62,9.68-13.94,7.34c-4.03-1.78-5.71-6.6-6.18-10.99-.46-4.38-.19-9-2.1-12.97-4.22-8.76-16.1-9.73-25.83-9.46-8.84,.24-18.3,.69-25.39,5.96-6.98,5.18-12.26,15.03-20.9,14.12-6.55-.69-11.35-7.8-17.94-7.64-5.62,.13-9.51,5.37-13.03,9.75s-9.08,8.73-14.22,6.48c-5.1-2.23-5.72-9.1-5.56-14.66,.37-13.18,.75-26.37,1.12-39.55,.03-1.2,.07-3.01,.1-4.99,.11-6.04,5.02-10.89,11.06-10.92l263.14-1.29c6.71-.03,12.17,5.38,12.2,12.09Z" style="fill:#fff;"></path></g><g style="opacity:.2;"><path d="M145.05,303.17c.99,.2,1.99,.4,3,.36,1.01-.04,2.04-.35,2.77-1.05,1.02-.98,1.26-2.5,1.42-3.9,.44-3.81,.7-7.65,.97-11.47,.77,1.77,1.81,3.42,3.09,4.87,.41,.46,.93,.94,1.54,.88,.61-.06,1.03-.64,1.32-1.18,.95-1.8,1.43-5.48,1.36-7.51h-10.32l-5.14,4.54v14.47Z"></path></g><path d="M118.77,291.31c67.66-.65,143.56-.66,211.21,0-67.66,.66-143.56,.65-211.21,0h0Z" style="fill:#fff;"></path><path d="M306.61,369.71c0,2.56-2.08,4.64-4.64,4.64s-4.64-2.08-4.64-4.64,2.08-4.64,4.64-4.64,4.64,2.08,4.64,4.64Z" style="opacity:.2;"></path><path d="M181.93,372.66c0,2.56-2.08,4.64-4.64,4.64s-4.64-2.08-4.64-4.64,2.08-4.64,4.64-4.64,4.64,2.08,4.64,4.64Z" style="opacity:.2;"></path><path d="M267.17,420.17c0,1.28-1.04,2.32-2.32,2.32s-2.32-1.04-2.32-2.32,1.04-2.32,2.32-2.32,2.32,1.04,2.32,2.32Z" style="opacity:.2;"></path><path d="M366.78,373.2c0,1.28-1.04,2.32-2.32,2.32s-2.32-1.04-2.32-2.32,1.04-2.32,2.32-2.32,2.32,1.04,2.32,2.32Z" style="opacity:.2;"></path><path d="M162.97,378.47c0,1.28-1.04,2.32-2.32,2.32s-2.32-1.04-2.32-2.32,1.04-2.32,2.32-2.32,2.32,1.04,2.32,2.32Z" style="opacity:.2;"></path><path d="M114.71,369.01c.67,18.73,.67,37.59,0,56.32-.67-18.73-.67-37.59,0-56.32h0Z" style="fill:#fff;"></path></g><g><rect x="140.13" y="181.97" width="211.83" height="103.43" transform="translate(492.09 467.37) rotate(180)" style="fill:#407BFF;"></rect><g style="opacity:.2;"><path d="M351.96,190.04c-1.72-.97-3.7-1.54-5.81-1.56l-193.36-2.24c-4.3,0-9.07-.03-12.66,3.77v50.47c1.01-.09,2.16-.28,3.46-.48,9.82-1.46,15.42-16.39,25.06-14.01,5.08,1.26,8.32,7.24,13.55,7.49,3.68,.18,6.84-2.66,8.89-5.72,2.06-3.06,3.53-6.58,6.22-9.11,5.69-5.37,15.02-4.54,21.97-.96,6.95,3.58,12.51,9.36,19.07,13.62,6.56,4.26,15.13,6.93,22.15,3.49,8.95-4.39,13.34-17.54,23.31-17.47,7.25,.05,13.66,7.72,20.58,5.53,2.92-.92,5.06-3.45,7.87-4.66,5.73-2.45,12.3,1.27,16.47,5.91,4.16,4.64,7.25,10.4,12.4,13.91,3.07,2.09,7.32,2.9,10.82,2.02v-50.01Z"></path></g><rect x="140.13" y="249.11" width="211.83" height="19.11" transform="translate(492.09 517.33) rotate(180)" style="opacity:.2;"></rect><g><path d="M346.15,178.34c6.6,.08,11.93,5.42,11.99,12.02,.08,9.54,.17,19.08,.25,28.62,.02,2.28,.02,4.65-.96,6.71-2.67,5.63-11.14,5.72-16.3,2.21-5.15-3.51-8.23-9.27-12.4-13.91-4.16-4.64-10.74-8.36-16.47-5.91-2.81,1.2-4.95,3.73-7.87,4.66-6.92,2.18-13.32-5.48-20.58-5.53-9.97-.06-14.36,13.08-23.31,17.47-7.02,3.44-15.59,.77-22.15-3.49-6.56-4.26-12.12-10.04-19.07-13.62-6.95-3.58-16.28-4.41-21.97,.96-2.68,2.53-4.16,6.05-6.22,9.11-2.06,3.06-5.21,5.9-8.89,5.72-5.23-.25-8.47-6.23-13.55-7.49-9.64-2.39-15.24,12.54-25.06,14.01-5.16,.77-7.95,1.47-8.76-3.67-.75-4.77-.2-14.56-.31-20.55-.58-29.67,9.77-29.54,18.28-29.54l193.36,2.24Z" style="fill:#407BFF;"></path><g style="opacity:.8;"><path d="M346.15,178.34c6.6,.08,11.93,5.42,11.99,12.02,.08,9.54,.17,19.08,.25,28.62,.02,2.28,.02,4.65-.96,6.71-2.67,5.63-11.14,5.72-16.3,2.21-5.15-3.51-8.23-9.27-12.4-13.91-4.16-4.64-10.74-8.36-16.47-5.91-2.81,1.2-4.95,3.73-7.87,4.66-6.92,2.18-13.32-5.48-20.58-5.53-9.97-.06-14.36,13.08-23.31,17.47-7.02,3.44-15.59,.77-22.15-3.49-6.56-4.26-12.12-10.04-19.07-13.62-6.95-3.58-16.28-4.41-21.97,.96-2.68,2.53-4.16,6.05-6.22,9.11-2.06,3.06-5.21,5.9-8.89,5.72-5.23-.25-8.47-6.23-13.55-7.49-9.64-2.39-15.24,12.54-25.06,14.01-5.16,.77-7.95,1.47-8.76-3.67-.75-4.77-.2-14.56-.31-20.55-.58-29.67,9.77-29.54,18.28-29.54l193.36,2.24Z" style="fill:#fff;"></path></g></g><path d="M152.23,181.2c13.22-.68,26.55-.68,39.77,0-13.22,.68-26.55,.68-39.77,0h0Z" style="fill:#fff;"></path><path d="M229.91,180.97c10.65-.68,21.4-.68,32.05,0-10.65,.68-21.4,.68-32.05,0h0Z" style="fill:#fff;"></path><path d="M297.06,181.44c12.29-.68,24.68-.68,36.97,0-12.29,.68-24.68,.68-36.97,0h0Z" style="fill:#fff;"></path><path d="M288.89,236.78c0,1.71-1.39,3.1-3.1,3.1s-3.1-1.39-3.1-3.1,1.39-3.1,3.1-3.1,3.1,1.39,3.1,3.1Z" style="opacity:.1;"></path><path d="M281.85,242.26c0,.85-.69,1.55-1.55,1.55s-1.55-.69-1.55-1.55,.69-1.55,1.55-1.55,1.55,.69,1.55,1.55Z" style="opacity:.1;"></path><circle cx="222.42" cy="243.17" r="1.55" style="opacity:.1;"></circle><circle cx="334.07" cy="275.79" r="1.55" style="opacity:.1;"></circle><path d="M276.45,275.79c0,2.56-2.08,4.64-4.64,4.64s-4.64-2.08-4.64-4.64,2.08-4.64,4.64-4.64,4.64,2.08,4.64,4.64Z" style="opacity:.2;"></path><path d="M214.1,232.48c0,2.56-2.08,4.64-4.64,4.64s-4.64-2.08-4.64-4.64,2.08-4.64,4.64-4.64,4.64,2.08,4.64,4.64Z" style="opacity:.2;"></path><path d="M200.25,239.59c1.12,1.12,1.12,2.94,0,4.06-1.12,1.12-2.94,1.12-4.06,0-1.12-1.12-1.12-2.94,0-4.06,1.12-1.12,2.94-1.12,4.06,0Z" style="opacity:.1;"></path><path d="M140.7,239.97c-6.32,5.45-10.18,13.47-10.53,21.79,0,.56-.01,1.12-.03,1.68-.18-.95-.29-2.39-.33-3.37-.05-7.94,4.09-15.91,10.9-20.1h0Z" style="fill:#fff;"></path></g><g><path d="M234.16,111.28c-.22-10.26-1.7-15.02-9.61-21.25l1.24-1.57c8.61,6.79,10.16,12.51,10.37,22.78l-2,.04Z" style="fill:#263238;"></path><g><path d="M248.78,118.01c.38-4.19-1.92-8.8-5.94-10.04-2.7-.83-5.81,.08-7.73,2.13v-.02c-2.95-.72-6.12,.82-7.96,2.84-1.84,2.01-2.63,4.93-2.07,7.6,.39,1.88,1.42,3.6,2.76,4.97,3.25,3.32,8.48,4.52,12.86,2.96s7.66-5.81,8.07-10.43Z" style="fill:#263238;"></path><g style="opacity:.4;"><path d="M248.78,118.01c.38-4.19-1.92-8.8-5.94-10.04-2.7-.83-5.81,.08-7.73,2.13v-.02c-2.95-.72-6.12,.82-7.96,2.84-1.84,2.01-2.63,4.93-2.07,7.6,.39,1.88,1.42,3.6,2.76,4.97,3.25,3.32,8.48,4.52,12.86,2.96s7.66-5.81,8.07-10.43Z" style="fill:#fff;"></path></g><g style="opacity:.4;"><path d="M233.51,111.89c-2.25,.13-4.38,1.53-5.39,3.54-1.01,2.01-.86,4.56,.38,6.43,.76,1.16,3.37,3.18,3.37,3.18,0,0,3.05-3.05,3.08-3.19-1.83-.68-3.24-2.38-3.58-4.3-.34-1.92,.41-4,1.9-5.26" style="fill:#fff;"></path></g></g></g><g><path d="M318.25,162.24l-2-.04c.22-10.27,1.76-16,10.37-22.78l1.24,1.57c-7.91,6.24-9.4,10.99-9.61,21.26Z" style="fill:#263238;"></path><g><path d="M303.63,168.98c-.38-4.19,1.92-8.8,5.94-10.04,2.7-.83,5.81,.08,7.73,2.13v-.02c2.95-.72,6.12,.82,7.96,2.84,1.84,2.01,2.63,4.93,2.07,7.6-.39,1.88-1.42,3.6-2.76,4.97-3.25,3.32-8.48,4.52-12.86,2.96-4.37-1.56-7.66-5.81-8.07-10.43Z" style="fill:#263238;"></path><g style="opacity:.4;"><path d="M303.63,168.98c-.38-4.19,1.92-8.8,5.94-10.04,2.7-.83,5.81,.08,7.73,2.13v-.02c2.95-.72,6.12,.82,7.96,2.84,1.84,2.01,2.63,4.93,2.07,7.6-.39,1.88-1.42,3.6-2.76,4.97-3.25,3.32-8.48,4.52-12.86,2.96-4.37-1.56-7.66-5.81-8.07-10.43Z" style="fill:#fff;"></path></g><g style="opacity:.4;"><path d="M318.9,162.86c2.25,.13,4.38,1.53,5.39,3.54,1.01,2.01,.86,4.56-.38,6.43-.76,1.16-3.37,3.18-3.37,3.18,0,0-3.05-3.05-3.08-3.19,1.83-.68,3.24-2.38,3.58-4.3,.34-1.92-.41-4-1.9-5.26" style="fill:#fff;"></path></g></g></g><g><g><g><path d="M79.5,425.56c-5.09-6.05-8.16-13.86-8.16-22.39,0-19.23,15.59-34.81,34.81-34.81s34.81,15.59,34.81,34.81c0,11.52-5.6,21.73-14.22,28.07l-62.94-.16c3.07-4.55,11.19-4.79,15.7-5.52Z" style="fill:#407BFF;"></path><path d="M85.56,421.43c-8.1-5.22-11.94-15.88-9.29-25.11,.38-1.3,.84-2.58,1.46-3.77-.41,1.28-.76,2.57-.98,3.88-1.81,9.18,1.74,18.91,8.81,25h0Z" style="fill:#fff; opacity:.3;"></path></g><g style="opacity:.3;"><path d="M93.82,376.69c2.87-1.96,8.7-3.66,15.34-2.84,8.67,.37,15.41,4.12,20.06,9.61,4.66,5.49,6.89,12.96,6.01,20.11-.31,2.52-1.11,5.18-3.14,6.7-2.51,1.88-6.19,1.38-8.82-.33-2.63-1.71-4.44-4.39-6.18-6.99-1.75-2.6-3.58-5.27-6.23-6.94-3.52-2.22-7.91-2.35-11.97-3.24-4.07-.88-8.45-3.16-9.32-7.23-.73-3.4,1.38-6.89,4.25-8.85Z" style="fill:#fff;"></path></g></g><g style="opacity:.5;"><path d="M79.5,425.56c-5.09-6.05-8.16-13.86-8.16-22.39,0-19.23,15.59-34.81,34.81-34.81s34.81,15.59,34.81,34.81c0,11.52-5.6,21.73-14.22,28.07l-62.94-.16c3.07-4.55,11.19-4.79,15.7-5.52Z" style="fill:#fff;"></path></g></g><g><path d="M246.42,124.82c-.57,.1,37.01-58.79,55.22-87.28,2.1-3.29,7.81-1.18,7.3,2.7-4.48,33.7-13.86,103.53-14.71,103.69-1.13,.21-47.8-19.11-47.8-19.11Z" style="fill:#b97964;"></path><rect x="277.72" y="94.26" width="1" height="54.82" transform="translate(-18.71 185.26) rotate(-35.71)" style="fill:#a24e3f;"></rect><rect x="259.3" y="112.32" width="1" height="22.89" transform="translate(-23.4 174.9) rotate(-35.71)" style="fill:#a24e3f;"></rect><rect x="284.18" y="80.36" width="1" height="44.94" transform="translate(-7.42 182.19) rotate(-35.06)" style="fill:#a24e3f;"></rect><rect x="290.44" y="66.55" width="1" height="34.53" transform="translate(4.64 182.33) rotate(-35.06)" style="fill:#a24e3f;"></rect><rect x="296.04" y="54.7" width="1" height="25.55" transform="translate(15.04 182.58) rotate(-35.06)" style="fill:#a24e3f;"></rect><rect x="300.45" y="45.25" width="1" height="17.9" transform="translate(23.47 182.72) rotate(-35.06)" style="fill:#a24e3f;"></rect><rect x="304.05" y="37.74" width="1" height="11.89" transform="translate(25.97 174.28) rotate(-33.28)" style="fill:#a24e3f;"></rect><rect x="250.57" y="120.13" width="49.16" height="1" transform="translate(-21.89 75.6) rotate(-15.05)" style="fill:#a24e3f;"></rect><rect x="274.75" y="133.39" width="22.09" height="1" transform="translate(-24.97 78.82) rotate(-15.05)" style="fill:#a24e3f;"></rect><rect x="255.16" y="102.29" width="47.08" height="1" transform="translate(-17.44 79.53) rotate(-15.75)" style="fill:#a24e3f;"></rect><rect x="268.05" y="83.43" width="36.05" height="1" transform="translate(-12.04 80.78) rotate(-15.75)" style="fill:#a24e3f;"></rect><rect x="279.65" y="67.03" width="26.29" height="1" transform="translate(-7.24 83.84) rotate(-16.1)" style="fill:#a24e3f;"></rect><rect x="289.09" y="53.6" width="18.69" height="1" transform="translate(-3.48 83.01) rotate(-15.75)" style="fill:#a24e3f;"></rect><rect x="296.82" y="42.91" width="12.17" height="1" transform="translate(-.41 83.87) rotate(-15.75)" style="fill:#a24e3f;"></rect></g><path d="M299.66,177.96c.71-4.39-3.97-5.98-5.58-6.29-1.61-.3-3.35-.26-4.76-1.09l-.03-.02c-1.54-.92-2.05-2.91-1.31-4.55,1.97-4.35,3.02-9.21,2.89-14.33-.44-17.15-14.36-31.21-31.5-31.83-18.62-.67-33.92,14.23-33.92,32.69,0,5.94,1.59,11.5,4.35,16.3,.12,.99-.03,1.93-.72,2.64-1.44,1.48-3.97,.63-5.92,1.31-1.55,.54-3.34,2.6-3.25,4.24l18.84,.22c0,5.04,1.34,10.09,3.91,14.43,.62,1.06,1.35,2.11,2.39,2.76,1.04,.65,2.47,.83,3.48,.13,1.21-.84,1.41-2.51,1.5-3.98,.27-4.4,.54-8.8,.81-13.2h1.29c.73,1.6,1.62,3.11,2.64,4.52,.48,.66,1.04,1.33,1.83,1.53,1.67,.43,3.03-1.52,3.2-3.24,.09-.89,.01-1.81,.02-2.71l39.84,.46Z" style="fill:#407BFF;"></path><g style="opacity:.3;"><path d="M299.66,177.96c.71-4.39-3.97-5.98-5.58-6.29-1.61-.3-3.35-.26-4.76-1.09l-.03-.02c-1.54-.92-2.05-2.91-1.31-4.55,1.97-4.35,3.02-9.21,2.89-14.33-.44-17.15-14.36-31.21-31.5-31.83-18.62-.67-33.92,14.23-33.92,32.69,0,5.94,1.59,11.5,4.35,16.3,.12,.99-.03,1.93-.72,2.64-1.44,1.48-3.97,.63-5.92,1.31-1.55,.54-3.34,2.6-3.25,4.24l18.84,.22c0,5.04,1.34,10.09,3.91,14.43,.62,1.06,1.35,2.11,2.39,2.76,1.04,.65,2.47,.83,3.48,.13,1.21-.84,1.41-2.51,1.5-3.98,.27-4.4,.54-8.8,.81-13.2h1.29c.73,1.6,1.62,3.11,2.64,4.52,.48,.66,1.04,1.33,1.83,1.53,1.67,.43,3.03-1.52,3.2-3.24,.09-.89,.01-1.81,.02-2.71l39.84,.46Z"></path></g><g style="opacity:.2;"><path d="M279.44,196.38c.99,.2,1.99,.4,3,.36,1.01-.04,2.04-.35,2.77-1.05,1.02-.98,1.26-2.5,1.42-3.9,.44-3.81,.7-7.65,.97-11.47,.77,1.77,1.81,3.42,3.09,4.87,.41,.46,.93,.94,1.54,.88,.61-.06,1.03-.64,1.32-1.18,.95-1.8,1.43-5.48,1.36-7.51h-10.32l-5.14,4.54v14.47Z"></path></g><g><path d="M292.86,175.66l-18.8,1.16c.44,5.08,.88,10.16,1.32,15.24,.13,1.5,.28,3.06,1.02,4.37,.75,1.31,2.27,2.31,3.74,1.95,1.1-.27,1.92-1.23,2.32-2.29,.4-1.06,.45-2.21,.49-3.34l.36-9.21c.04-.95,.24-2.14,1.16-2.4,.86-.25,1.67,.55,2.06,1.36,.39,.81,.61,1.75,1.32,2.3,1.11,.86,2.85,.21,3.61-.97,.76-1.18,.81-2.66,.79-4.06s-.04-2.87,.61-4.11Z" style="fill:#407BFF;"></path><circle cx="283.35" cy="150.31" r="27.56" transform="translate(-28.18 226.64) rotate(-41.71)" style="fill:#407BFF;"></circle><path d="M320.18,174.91c-1.23-1.85-3.29-2.97-5.33-3.85-5.58-2.41-11.66-3.64-17.74-3.6l-30.25,4.56c.57,1.26,.51,2.78-.15,3.99s-1.92,1.17-3.29,1.36c18.41,.03,36.81,.96,55.22,.99,.5,0,1.02,0,1.45-.27,1.01-.63,.75-2.2,.09-3.19Z" style="fill:#407BFF;"></path><g style="opacity:.6;"><path d="M320.18,174.91c-1.23-1.85-3.29-2.97-5.33-3.85-3.32-1.44-6.83-2.44-10.4-3.02,4.03-4.79,6.47-10.98,6.47-17.73,0-15.22-12.34-27.56-27.56-27.56s-27.56,12.34-27.56,27.56c0,9.12,4.43,17.21,11.26,22.22,.35,1.15,.23,2.43-.34,3.49-.66,1.21-1.92,1.17-3.29,1.36,3.57,0,7.13,.05,10.7,.11,.42,4.85,.84,9.71,1.27,14.56,.13,1.5,.28,3.06,1.02,4.37,.75,1.31,2.27,2.31,3.74,1.95,1.1-.27,1.92-1.23,2.32-2.29,.4-1.06,.45-2.21,.49-3.34l.36-9.21c.04-.95,.24-2.14,1.16-2.4,.86-.25,1.67,.55,2.06,1.36,.39,.81,.61,1.75,1.32,2.3,1.11,.86,2.85,.21,3.61-.97,.76-1.18,.81-2.66,.79-4.06,0-.62-.01-1.24,.04-1.86,8.78,.23,17.57,.45,26.35,.46,.5,0,1.02,0,1.45-.27,1.01-.63,.75-2.2,.09-3.19Z" style="fill:#fff;"></path></g><g style="opacity:.3;"><path d="M292.49,128.46c-2.27-1.55-6.89-2.9-12.15-2.25-6.86,.3-12.2,3.26-15.89,7.61-3.69,4.34-5.46,10.26-4.76,15.92,.25,1.99,.88,4.1,2.49,5.3,1.99,1.49,4.9,1.1,6.98-.26,2.08-1.35,3.51-3.48,4.9-5.53,1.38-2.06,2.83-4.17,4.93-5.5,2.79-1.76,6.26-1.86,9.48-2.56,3.22-.7,6.69-2.5,7.38-5.72,.58-2.69-1.09-5.46-3.37-7.01Z" style="fill:#fff;"></path></g><path d="M299.66,165.11c5.49-4.91,8.27-12.52,6.93-19.78-.15-1.04-.43-2.06-.73-3.09,.51,.94,.88,1.95,1.2,2.98,2.19,7.3-.89,15.87-7.4,19.89h0Z" style="fill:#fff; opacity:.3;"></path></g><g style="opacity:.2;"><path d="M209.46,192.35c.99,.2,1.99,.4,3,.36,1.01-.04,2.04-.35,2.77-1.05,1.02-.98,1.26-2.5,1.42-3.9,.44-3.81,.7-7.65,.97-11.47,.77,1.77,1.81,3.42,3.09,4.87,.41,.46,.93,.94,1.54,.88,.61-.06,1.03-.64,1.32-1.18,.95-1.8,1.42-3.84,1.35-5.88l-10.31-1.63-5.14,4.54v14.47Z"></path></g><g><path d="M258.72,177.33c.65-4-3.62-5.45-5.08-5.73-1.47-.28-3.05-.24-4.33-1l-.03-.02c-1.4-.84-1.86-2.65-1.19-4.14,1.8-3.97,2.75-8.39,2.63-13.06-.4-15.62-13.09-28.45-28.71-29.01-16.97-.61-30.91,12.96-30.91,29.79,0,5.41,1.45,10.48,3.97,14.85,.11,.9-.03,1.76-.66,2.4-1.31,1.35-3.62,.58-5.39,1.2-1.41,.49-3.05,2.37-2.97,3.86l17.17,.2c0,4.6,1.22,9.2,3.56,13.15,.57,.96,1.23,1.92,2.18,2.52,.95,.6,2.25,.75,3.17,.12,1.1-.76,1.29-2.29,1.37-3.63,.24-4.01,.49-8.02,.73-12.03h1.18c.67,1.45,1.47,2.83,2.41,4.12,.44,.6,.95,1.21,1.67,1.4,1.52,.39,2.76-1.38,2.91-2.95,.08-.81,.01-1.65,.02-2.47l36.3,.42Z" style="fill:#407BFF;"></path><g style="opacity:.3;"><path d="M231.13,130.37c-2.27-1.55-6.89-2.9-12.15-2.25-6.86,.3-12.2,3.26-15.89,7.61-3.69,4.34-5.46,10.26-4.76,15.92,.25,1.99,.88,4.1,2.49,5.3,1.99,1.49,4.9,1.1,6.98-.26,2.08-1.35,3.51-3.48,4.9-5.53,1.38-2.06,2.83-4.17,4.93-5.5,2.79-1.76,6.26-1.86,9.48-2.56,3.22-.7,6.69-2.5,7.38-5.72,.58-2.69-1.09-5.46-3.37-7.01Z" style="fill:#fff;"></path></g><path d="M240.3,169.14c5.49-4.91,8.27-12.52,6.93-19.78-.15-1.04-.43-2.06-.73-3.09,.51,.94,.88,1.95,1.2,2.98,2.19,7.3-.89,15.87-7.4,19.89h0Z" style="fill:#fff; opacity:.3;"></path></g><g><g><path d="M193.19,286.72c.67-4.1-3.7-5.58-5.21-5.87s-3.12-.24-4.44-1.02l-.03-.02c-1.44-.86-1.91-2.72-1.22-4.24,1.84-4.06,2.82-8.59,2.69-13.37-.41-16-13.4-29.13-29.4-29.7-17.37-.62-31.65,13.28-31.65,30.51,0,5.54,1.48,10.73,4.06,15.21,.11,.92-.03,1.8-.67,2.46-1.34,1.38-3.7,.59-5.52,1.23-1.45,.51-3.12,2.42-3.04,3.95l17.58,.2c0,4.71,1.25,9.42,3.65,13.47,.58,.99,1.26,1.96,2.23,2.58,.97,.61,2.3,.77,3.25,.12,1.13-.78,1.32-2.35,1.4-3.72,.25-4.11,.5-8.21,.75-12.32h1.21c.68,1.49,1.51,2.9,2.47,4.21,.45,.61,.97,1.24,1.71,1.43,1.56,.4,2.83-1.42,2.98-3.02,.08-.83,.01-1.69,.02-2.53l37.17,.43Z" style="fill:#407BFF;"></path><g style="opacity:.3;"><path d="M164.93,238.63c-2.33-1.59-7.06-2.97-12.44-2.3-7.03,.3-12.49,3.34-16.27,7.79-3.78,4.45-5.59,10.51-4.87,16.3,.25,2.04,.9,4.2,2.55,5.43,2.03,1.52,5.02,1.12,7.15-.26,2.13-1.39,3.6-3.56,5.01-5.67,1.42-2.11,2.9-4.27,5.05-5.63,2.85-1.8,6.41-1.91,9.71-2.62,3.3-.72,6.85-2.56,7.56-5.86,.59-2.75-1.12-5.59-3.45-7.18Z" style="fill:#fff;"></path></g><path d="M174.33,278.34c5.63-5.02,8.49-12.82,7.1-20.26-.16-1.07-.44-2.11-.75-3.16,.52,.96,.9,2,1.23,3.05,2.23,7.48-.92,16.24-7.58,20.37h0Z" style="fill:#fff; opacity:.3;"></path></g><g style="opacity:.5;"><path d="M193.19,286.72c.67-4.1-3.7-5.58-5.21-5.87s-3.12-.24-4.44-1.02l-.03-.02c-1.44-.86-1.91-2.72-1.22-4.24,1.84-4.06,2.82-8.59,2.69-13.37-.41-16-13.4-29.13-29.4-29.7-17.37-.62-31.65,13.28-31.65,30.51,0,5.54,1.48,10.73,4.06,15.21,.11,.92-.03,1.8-.67,2.46-1.34,1.38-3.7,.59-5.52,1.23-1.45,.51-3.12,2.42-3.04,3.95l17.58,.2c0,4.71,1.25,9.42,3.65,13.47,.58,.99,1.26,1.96,2.23,2.58,.97,.61,2.3,.77,3.25,.12,1.13-.78,1.32-2.35,1.4-3.72,.25-4.11,.5-8.21,.75-12.32h1.21c.68,1.49,1.51,2.9,2.47,4.21,.45,.61,.97,1.24,1.71,1.43,1.56,.4,2.83-1.42,2.98-3.02,.08-.83,.01-1.69,.02-2.53l37.17,.43Z" style="fill:#fff;"></path></g></g><path d="M207.57,132.22c-6.32,5.45-10.18,13.47-10.53,21.79,0,.56-.01,1.12-.03,1.68-.18-.95-.29-2.39-.33-3.37-.05-7.94,4.09-15.91,10.9-20.1h0Z" style="fill:#fff;"></path><path d="M270.56,128.72c-6.32,5.45-10.18,13.47-10.53,21.79,0,.56-.01,1.12-.03,1.68-.18-.95-.29-2.39-.33-3.37-.05-7.94,4.09-15.91,10.9-20.1h0Z" style="fill:#fff;"></path><g><g><g><g><path d="M332.49,429.88c3.04-3.61,4.87-8.27,4.87-13.36,0-11.47-9.3-20.77-20.77-20.77s-20.77,9.3-20.77,20.77c0,6.87,3.34,12.96,8.49,16.74l37.55-.09c-1.83-2.72-6.68-2.86-9.37-3.3Z" style="fill:#407BFF;"></path><path d="M328.88,427.42c4.7-4.46,6.46-11,4.67-17.23,3.31,5.7,1.06,13.98-4.67,17.23h0Z" style="fill:#fff; opacity:.3;"></path></g><g style="opacity:.3;"><path d="M323.94,400.73c-1.71-1.17-5.19-2.18-9.15-1.69-5.17,.22-9.19,2.46-11.97,5.73s-4.11,7.73-3.59,11.99c.19,1.5,.66,3.09,1.88,4,1.5,1.12,3.69,.83,5.26-.19,1.57-1.02,2.65-2.62,3.69-4.17s2.14-3.14,3.72-4.14c2.1-1.33,4.72-1.4,7.14-1.93,2.43-.53,5.04-1.88,5.56-4.31,.44-2.03-.82-4.11-2.54-5.28Z" style="fill:#fff;"></path></g></g><g style="opacity:.5;"><path d="M332.49,429.88c3.04-3.61,4.87-8.27,4.87-13.36,0-11.47-9.3-20.77-20.77-20.77s-20.77,9.3-20.77,20.77c0,6.87,3.34,12.96,8.49,16.74l37.55-.09c-1.83-2.72-6.68-2.86-9.37-3.3Z" style="fill:#fff;"></path></g></g><path d="M305.57,402.51c-4.73,5.52-6.44,12.96-4.62,19.99-3.31-6.55-1.22-15.56,4.62-19.99h0Z" style="fill:#fff;"></path></g><g><g><g><path d="M417.51,428.36c-1.54-2.32-4.12-3.71-6.67-4.81-4.15-1.79-8.53-3.06-13-3.79,5.04-5.99,8.08-13.72,8.08-22.17,0-19.04-15.43-34.47-34.47-34.47s-34.47,15.43-34.47,34.47c0,11.41,5.55,21.52,14.08,27.79,.44,1.43,.29,3.04-.43,4.36-.83,1.51-2.4,1.46-4.11,1.7,6.69,.01,13.38,.12,20.06,.27l50.37,.64c1.27-.78,1.37-2.75,.55-3.99Z" style="fill:#407BFF;"></path><g style="opacity:.5;"><path d="M417.51,428.36c-1.54-2.32-4.12-3.71-6.67-4.81-4.15-1.79-8.53-3.06-13-3.79,5.04-5.99,8.08-13.72,8.08-22.17,0-19.04-15.43-34.47-34.47-34.47s-34.47,15.43-34.47,34.47c0,11.41,5.55,21.52,14.08,27.79,.44,1.43,.29,3.04-.43,4.36-.83,1.51-2.4,1.46-4.11,1.7,6.69,.01,13.38,.12,20.06,.27l50.37,.64c1.27-.78,1.37-2.75,.55-3.99Z" style="fill:#fff;"></path></g><path d="M391.85,415.68c6.99-6.03,10.51-15.66,8.72-24.75-.21-1.3-.57-2.58-.97-3.85,.61,1.18,1.07,2.45,1.45,3.74,2.63,9.13-1.18,19.7-9.2,24.86h0Z" style="fill:#fff; opacity:.3;"></path></g><g style="opacity:.3;"><path d="M383.66,371.38c-2.84-1.94-8.62-3.63-15.19-2.81-8.58,.37-15.25,4.08-19.87,9.51-4.61,5.43-6.83,12.83-5.95,19.91,.31,2.49,1.1,5.13,3.11,6.63,2.48,1.86,6.13,1.37,8.73-.32,2.6-1.69,4.39-4.35,6.12-6.92,1.73-2.58,3.54-5.22,6.17-6.87,3.48-2.2,7.83-2.33,11.85-3.2,4.03-.88,8.36-3.13,9.23-7.15,.72-3.36-1.37-6.83-4.21-8.76Z" style="fill:#fff;"></path></g></g><path d="M348.68,378.72c-4.73,5.52-6.44,12.96-4.62,19.99-3.31-6.55-1.22-15.56,4.62-19.99h0Z" style="fill:#fff;"></path></g><g><path d="M183.15,159.85c-.21-10.26-1.7-15.02-9.61-21.26l1.24-1.57c8.61,6.79,10.16,12.51,10.37,22.78l-2,.04Z" style="fill:#263238;"></path><g><path d="M197.77,166.59c.38-4.19-1.92-8.8-5.94-10.04-2.7-.83-5.81,.08-7.73,2.13v-.02c-2.95-.72-6.12,.82-7.96,2.84-1.84,2.01-2.63,4.93-2.07,7.6,.39,1.88,1.42,3.6,2.76,4.97,3.25,3.32,8.48,4.52,12.86,2.96,4.37-1.56,7.66-5.81,8.07-10.43Z" style="fill:#263238;"></path><g style="opacity:.3;"><path d="M197.77,166.59c.38-4.19-1.92-8.8-5.94-10.04-2.7-.83-5.81,.08-7.73,2.13v-.02c-2.95-.72-6.12,.82-7.96,2.84-1.84,2.01-2.63,4.93-2.07,7.6,.39,1.88,1.42,3.6,2.76,4.97,3.25,3.32,8.48,4.52,12.86,2.96,4.37-1.56,7.66-5.81,8.07-10.43Z" style="fill:#fff;"></path></g><g style="opacity:.4;"><path d="M182.49,160.47c-2.25,.13-4.38,1.53-5.39,3.54-1.01,2.01-.86,4.56,.38,6.43,.76,1.16,3.37,3.18,3.37,3.18,0,0,3.05-3.05,3.08-3.19-1.83-.68-3.24-2.38-3.58-4.3-.34-1.92,.41-4,1.9-5.26" style="fill:#fff;"></path></g></g></g><path d="M56.06,431.24c0,7.25,5.88,13.14,13.14,13.14h9.78l4.75,3.82H416.51l4.75-3.82h9.55c7.25,0,13.14-5.88,13.14-13.14H56.06Z" style="fill:#263238;"></path></g></g></svg>
