<svg xmlns="http://www.w3.org/2000/svg" viewBox="0 0 500 500">
	<g id="freepik--ID--inject-48">
		<path
			d="M298.92,103.44,193.48,93.33a9.88,9.88,0,0,0-10.73,8.86L167.64,260a9.85,9.85,0,0,0,8.85,10.73l105.43,10.11a9.87,9.87,0,0,0,10.73-8.86l15.12-157.76A9.86,9.86,0,0,0,298.92,103.44Zm-22.57,60.42A36.23,36.23,0,1,1,253,126.44a35.84,35.84,0,0,1,8,4.21,36.19,36.19,0,0,1,15.36,33.21Z"
			style="fill:#fff;opacity:0.9"></path>
		<path
			d="M245.63,64.81,257.05,67a5.83,5.83,0,0,1,4.6,6.26l-2.21,20.12a4.89,4.89,0,0,1-.15.78,4.81,4.81,0,0,1-5.61,3.52l-11.42-2.15A5.85,5.85,0,0,1,237.63,90a4.32,4.32,0,0,1,0-.8l2.21-20.12A4.83,4.83,0,0,1,245.63,64.81Zm4.77,9.6a3.84,3.84,0,0,0-4.58,3.42,4.62,4.62,0,0,0,3.66,5,3.83,3.83,0,0,0,4.58-3.42A4.63,4.63,0,0,0,250.4,74.41Z"
			style="fill:#263238"></path>
		<path
			d="M280.82,107.43a1.23,1.23,0,0,1-1.11-.7l-4.41-9.11a4,4,0,0,0-3.22-2.25l-50.72-4.86a4,4,0,0,0-3.59,1.59l-6.06,8.12a1.23,1.23,0,0,1-2-1.47l6.06-8.12a6.51,6.51,0,0,1,5.8-2.57l50.71,4.86a6.53,6.53,0,0,1,5.21,3.63l4.4,9.11a1.23,1.23,0,0,1-1.1,1.77Z"
			style="fill:#407BFF"></path>
		<path d="M177,135.54l-.81-.08.56-5.87.82.08ZM178,124.18l-.81-.08,1.27-13.3.82.08Z"
			style="fill:#407BFF"></path>
		<path
			d="M282.87,281.24a8.21,8.21,0,0,1-1-.05l-105.43-10.1a10.26,10.26,0,0,1-9.22-11.18l15.11-157.76a10.27,10.27,0,0,1,11.18-9.22L299,103a10.27,10.27,0,0,1,9.23,11.18L293.06,272a10.28,10.28,0,0,1-10.19,9.27ZM192.54,93.7a9.45,9.45,0,0,0-9.38,8.53L168,260a9.48,9.48,0,0,0,8.49,10.29L282,280.38a9.45,9.45,0,0,0,10.28-8.49l15.12-157.76a9.47,9.47,0,0,0-8.48-10.29L193.44,93.74C193.14,93.71,192.84,93.7,192.54,93.7Zm47.78,103.38c-1.18,0-2.37-.06-3.56-.17a36.67,36.67,0,1,1,16.36-70.85,35.85,35.85,0,0,1,8.1,4.26,36.62,36.62,0,0,1,15.54,33.58,36.67,36.67,0,0,1-36.44,33.18Zm-.09-72.53a35.85,35.85,0,1,0,35.71,39.27h0A35.8,35.8,0,0,0,260.75,131a34.65,34.65,0,0,0-7.92-4.16,35.33,35.33,0,0,0-9.15-2.11C242.52,124.61,241.37,124.55,240.23,124.55Z"
			style="fill:#407BFF"></path>
		<path
			d="M253,126.44a36.27,36.27,0,0,0-45.86,48.67l-34,28.08,9.68-101a9.88,9.88,0,0,1,10.73-8.86l34.94,3.35,11.18,13.56Z"
			style="fill:#407BFF;opacity:0.8"></path>
		<path
			d="M307.77,114.17,301,184.66l-25-30.29a36.37,36.37,0,0,0-15-23.72L294.48,103l4.44.43A9.86,9.86,0,0,1,307.77,114.17Z"
			style="fill:#407BFF;opacity:0.5"></path>
		<path d="M294.48,103,261,130.65a35.84,35.84,0,0,0-8-4.21l-13.37-16.2L228.42,96.68Z"
			style="fill:#407BFF"></path>
		<rect x="201.93" y="208.97" width="66.68" height="7.1" rx="1.91"
			transform="translate(21.34 -21.47) rotate(5.47)" style="fill:#407BFF;opacity:0.5"></rect>
		<rect x="205.63" y="221.69" width="56.84" height="7.1" rx="1.91"
			transform="translate(22.55 -21.3) rotate(5.47)" style="fill:#407BFF;opacity:0.5"></rect>
		<rect x="183.62" y="250.17" width="15.76" height="2.58"
			transform="translate(24.86 -17.12) rotate(5.47)" style="fill:#407BFF;opacity:0.5"></rect>
		<rect x="202.85" y="251.87" width="12.71" height="2.58"
			transform="translate(25.1 -18.8) rotate(5.47)" style="fill:#407BFF;opacity:0.5"></rect>
		<rect x="183.02" y="256.94" width="36.53" height="2.58"
			transform="translate(25.55 -18.02) rotate(5.47)" style="fill:#407BFF;opacity:0.5"></rect>
		<rect x="184.11" y="245.69" width="42.85" height="2.58"
			transform="matrix(1, 0.1, -0.1, 1, 24.49, -18.48)" style="fill:#407BFF;opacity:0.5"></rect>
		<path
			d="M256,66.53,244.4,64.42a5.34,5.34,0,0,0-6.19,4.33L234.59,88.9a3.66,3.66,0,0,0-.07.8,5.36,5.36,0,0,0,4.37,5.44l11.57,2.11a5.33,5.33,0,0,0,6-3.55,4.08,4.08,0,0,0,.21-.78l3.61-20.15A5.38,5.38,0,0,0,256,66.53ZM248.65,74a4.27,4.27,0,1,1-4.92,3.44A4.28,4.28,0,0,1,248.65,74Z"
			style="fill:#263238"></path>
		<path
			d="M256,66.53,244.4,64.42a5.34,5.34,0,0,0-6.19,4.33L234.59,88.9a3.66,3.66,0,0,0-.07.8,5.36,5.36,0,0,0,4.37,5.44l11.57,2.11a5.33,5.33,0,0,0,6-3.55,4.08,4.08,0,0,0,.21-.78l3.61-20.15A5.38,5.38,0,0,0,256,66.53ZM248.65,74a4.27,4.27,0,1,1-4.92,3.44A4.28,4.28,0,0,1,248.65,74Z"
			style="fill:#fff;opacity:0.2"></path>
		<circle cx="273.05" cy="259.28" r="7.09" transform="translate(-102.57 233.07) rotate(-39.53)"
			style="fill:#407BFF;opacity:0.2"></circle>
		<circle cx="254.28" cy="257.48" r="7.09" transform="translate(-105.72 220.71) rotate(-39.53)"
			style="fill:#407BFF;opacity:0.8"></circle>
	</g>
</svg>